{"glyphs":{"0":{"ha":944,"x_min":28,"x_max":917,"o":"m 472 993 q 669 949 567 993 q 844 797 771 904 q 917 515 917 690 l 917 458 q 844 177 917 285 q 668 25 771 69 q 472 -19 565 -19 q 276 25 379 -19 q 101 177 174 69 q 28 458 28 285 l 28 515 q 101 797 28 689 q 276 949 174 904 q 472 993 379 993 m 472 222 q 665 256 569 222 q 823 351 761 290 q 885 488 885 413 q 823 623 885 563 q 665 717 761 683 q 472 751 569 751 q 279 717 375 751 q 122 623 183 683 q 60 488 60 563 q 122 352 60 413 q 279 257 183 292 q 472 222 375 222 z "},"1":{"ha":821,"x_min":35,"x_max":771,"o":"m 147 972 l 424 972 l 424 243 l 771 243 l 771 0 l 35 0 l 35 243 l 383 243 l 383 729 l 147 729 l 147 972 z "},"2":{"ha":950,"x_min":36,"x_max":893,"o":"m 893 0 l 36 0 l 36 196 q 92 391 36 329 q 233 467 149 453 q 467 482 318 482 l 657 482 q 792 497 744 482 q 840 561 840 513 q 799 649 840 606 q 674 722 757 693 q 472 750 590 750 q 249 711 331 750 q 119 597 168 672 l 72 610 q 126 792 72 703 q 276 937 181 881 q 489 993 371 993 q 707 930 618 993 q 839 776 796 867 q 882 603 882 685 q 852 495 882 531 q 774 451 822 460 q 643 442 725 442 l 472 442 q 260 430 346 442 q 133 379 174 418 q 95 314 108 354 q 82 244 82 274 l 893 243 l 893 0 z "},"3":{"ha":1001,"x_min":25,"x_max":958,"o":"m 490 990 q 749 920 650 990 q 892 759 849 850 q 935 601 935 668 q 918 535 935 564 q 869 490 901 506 q 931 453 904 486 q 958 372 958 419 q 913 213 958 306 q 769 49 867 119 q 522 -21 671 -21 q 275 42 382 -21 q 105 197 168 106 q 25 371 42 288 l 85 383 q 224 277 124 333 q 514 221 324 221 q 724 245 633 221 q 862 309 814 269 q 910 394 910 349 q 874 451 910 433 q 786 469 838 469 l 346 469 l 346 511 l 781 511 q 869 538 843 511 q 896 593 894 564 q 844 667 896 631 q 706 728 792 704 q 525 751 621 751 q 240 701 343 751 q 92 597 138 650 l 43 608 q 92 741 43 647 q 240 913 140 835 q 490 990 340 990 z "},"4":{"ha":924,"x_min":36,"x_max":890,"o":"m 890 281 l 769 281 l 769 0 l 729 0 l 729 281 l 36 281 l 36 333 l 503 972 l 769 972 l 769 321 l 890 321 l 890 281 m 310 321 l 729 321 l 729 893 l 310 321 z "},"5":{"ha":964,"x_min":24,"x_max":915,"o":"m 122 515 q 274 570 176 549 q 482 592 372 592 q 695 568 596 592 q 855 499 794 544 q 915 389 915 453 l 915 361 q 856 158 915 244 q 699 25 796 71 q 493 -21 601 -21 q 284 24 385 -21 q 113 151 183 69 q 24 338 43 232 l 85 351 q 256 250 139 282 q 497 218 374 218 q 677 236 589 218 q 823 291 765 254 q 881 382 881 328 q 822 474 881 436 q 674 532 764 513 q 489 551 583 551 q 290 531 392 551 q 122 464 189 510 l 78 464 l 114 971 l 856 971 l 856 728 l 138 728 l 122 515 z "},"6":{"ha":947,"x_min":28,"x_max":926,"o":"m 475 592 q 660 574 560 592 q 837 510 760 556 q 921 389 914 465 q 858 158 921 250 q 697 22 794 65 q 496 -21 600 -21 q 248 41 354 -21 q 85 210 142 103 q 28 451 28 318 l 28 536 q 89 768 33 665 q 244 931 144 871 q 475 990 343 990 q 692 940 593 990 q 854 801 792 889 q 926 604 917 713 l 881 596 q 710 716 815 683 q 474 749 604 749 q 267 717 361 749 q 118 623 174 686 q 63 468 63 560 q 201 553 103 514 q 475 592 299 592 m 75 383 q 145 290 75 328 q 310 235 215 253 q 479 218 406 218 q 647 236 553 218 q 811 292 742 254 q 881 386 881 331 q 815 476 881 439 q 656 533 750 514 q 476 551 561 551 q 292 531 386 551 q 137 472 199 511 q 75 383 75 433 z "},"7":{"ha":839,"x_min":38,"x_max":828,"o":"m 38 728 l 38 971 l 828 971 l 828 921 l 267 0 l 219 0 l 664 728 l 38 728 z "},"8":{"ha":946,"x_min":22,"x_max":924,"o":"m 924 333 q 856 147 924 228 q 682 23 788 67 q 469 -21 576 -21 q 259 23 363 -21 q 89 147 156 67 q 22 333 22 228 q 93 443 22 406 q 257 503 164 481 q 112 556 169 524 q 54 651 54 588 q 113 825 54 747 q 267 947 171 903 q 475 990 364 990 q 677 946 581 990 q 833 824 774 901 q 892 651 892 746 q 834 555 892 586 q 688 503 776 524 q 852 444 781 482 q 924 333 924 407 m 92 647 q 149 579 92 608 q 294 535 206 550 q 472 521 382 521 q 734 554 615 521 q 853 647 853 588 q 791 703 853 679 q 640 738 729 726 q 472 750 550 750 q 304 738 393 750 q 153 703 215 726 q 92 647 92 679 m 472 479 q 263 460 357 479 q 116 407 169 440 q 63 333 63 374 q 132 267 63 293 q 297 231 201 242 q 472 219 392 219 q 649 231 554 219 q 814 268 744 242 q 883 335 883 294 q 829 407 883 374 q 681 460 775 440 q 472 479 588 479 z "},"9":{"ha":947,"x_min":21,"x_max":919,"o":"m 474 378 q 288 396 388 378 q 111 459 188 414 q 28 581 35 504 q 94 807 28 714 q 260 945 161 900 q 451 990 358 990 q 699 928 593 990 q 863 759 806 867 q 919 518 919 651 l 919 433 q 858 201 914 304 q 703 39 803 99 q 472 -21 604 -21 q 255 30 354 -21 q 93 169 156 81 q 21 365 31 257 l 67 374 q 238 253 132 286 q 474 221 344 221 q 680 252 586 221 q 829 347 774 283 q 885 501 885 410 q 747 417 844 456 q 474 378 650 378 m 874 586 q 803 679 874 642 q 638 734 733 717 q 469 751 543 751 q 301 733 396 751 q 136 677 206 715 q 67 583 67 639 q 132 493 67 531 q 292 437 197 456 q 472 418 388 418 q 656 438 563 418 q 812 497 750 458 q 874 586 874 536 z "},"\r":{"ha":347,"x_min":0,"x_max":0,"o":""},"\u0000":{"ha":0,"x_min":0,"x_max":0,"o":""}," ":{"ha":347,"x_min":0,"x_max":0,"o":""},"!":{"ha":431,"x_min":111,"x_max":314,"o":"m 193 971 l 193 268 l 233 268 l 233 971 l 193 971 m 213 -21 q 285 9 256 -21 q 314 81 314 39 q 285 152 314 122 q 213 182 256 182 q 141 152 171 182 q 111 81 111 122 q 141 9 111 39 q 213 -21 171 -21 z "},"\"":{"ha":396,"x_min":113,"x_max":301,"o":"m 114 971 l 113 619 l 153 619 l 154 971 l 114 971 m 261 971 l 260 619 l 300 619 l 301 971 l 261 971 z "},"#":{"ha":1203,"x_min":35,"x_max":1122,"o":"m 665 306 l 375 306 l 268 -31 l 233 -19 l 338 306 l 35 306 l 35 342 l 350 342 l 443 633 l 97 633 l 97 669 l 454 669 l 561 1006 l 596 994 l 492 669 l 782 669 l 889 1006 l 924 994 l 819 669 l 1122 669 l 1122 633 l 808 633 l 715 342 l 1060 342 l 1060 306 l 703 306 l 596 -31 l 561 -19 l 665 306 m 771 633 l 481 633 l 388 342 l 676 342 l 771 633 z "},"%":{"ha":1242,"x_min":68,"x_max":1140,"o":"m 179 -7 l 1000 1004 l 1031 979 l 210 -33 l 179 -7 m 329 992 q 442 962 390 992 q 524 881 493 932 q 554 768 554 829 q 524 655 554 707 q 442 573 493 603 q 329 543 390 543 l 293 543 q 181 573 232 543 q 99 655 129 603 q 68 768 68 707 q 99 881 68 829 q 181 962 129 932 q 293 992 232 992 l 329 992 m 328 669 q 468 695 417 669 q 519 768 519 721 q 467 841 519 815 q 328 867 415 867 l 294 867 q 155 841 207 867 q 103 768 103 815 q 154 695 103 721 q 294 669 206 669 l 328 669 m 881 -21 q 767 10 819 -21 q 685 92 715 40 q 656 204 656 143 q 685 317 656 265 q 767 399 715 368 q 881 429 819 429 l 917 429 q 1029 399 978 429 q 1110 317 1081 368 q 1140 204 1140 265 q 1110 92 1140 143 q 1029 10 1081 40 q 917 -21 978 -21 l 881 -21 m 882 303 q 742 277 793 303 q 690 204 690 251 q 742 131 690 157 q 882 106 794 106 l 915 106 q 1055 131 1003 106 q 1107 204 1107 157 q 1055 277 1107 251 q 915 303 1003 303 l 882 303 z "},"&":{"ha":1063,"x_min":33,"x_max":1022,"o":"m 763 264 q 892 354 858 296 l 936 344 q 858 168 921 253 l 1022 0 l 964 0 l 831 136 q 676 19 760 58 q 472 -19 592 -19 q 228 52 326 -19 q 81 219 129 124 q 33 379 33 314 q 145 528 33 479 q 385 589 257 576 l 56 921 l 56 972 l 869 972 l 869 729 l 304 729 l 763 264 m 421 551 q 176 499 282 543 q 69 385 69 456 q 131 294 69 331 q 285 239 193 257 q 471 221 378 221 q 718 250 608 221 l 421 551 z "},"'":{"ha":268,"x_min":31,"x_max":238,"o":"m 193 811 q 141 703 188 747 q 31 660 94 660 l 31 619 q 184 687 131 619 q 238 869 238 754 q 206 956 238 918 q 132 993 174 993 q 60 963 90 993 q 31 892 31 933 q 60 820 31 850 q 132 790 90 790 q 193 811 168 790 z "},"(":{"ha":532,"x_min":129,"x_max":336,"o":"m 336 -107 q 212 170 254 18 q 169 486 169 322 q 213 803 169 651 q 336 1081 256 956 l 301 1100 q 172 810 215 968 q 129 486 129 651 q 172 162 129 321 q 301 -128 215 3 l 336 -107 z "},")":{"ha":532,"x_min":129,"x_max":336,"o":"m 129 -107 q 253 170 211 18 q 296 486 296 322 q 253 803 296 651 q 129 1081 210 956 l 165 1100 q 293 809 250 967 q 336 486 336 651 q 293 162 336 321 q 165 -128 250 3 l 129 -107 z "},"*":{"ha":544,"x_min":36,"x_max":514,"o":"m 514 593 l 494 558 l 296 674 l 296 444 l 256 444 l 256 674 l 57 558 l 36 593 l 235 708 l 36 824 l 57 858 l 256 743 l 256 972 l 296 972 l 296 743 l 494 858 l 514 824 l 315 708 l 514 593 z "},"+":{"ha":856,"x_min":88,"x_max":768,"o":"m 88 506 l 407 506 l 407 825 l 447 825 l 447 506 l 768 506 l 768 465 l 447 465 l 447 146 l 407 146 l 407 465 l 88 465 l 88 506 z "},",":{"ha":235,"x_min":14,"x_max":221,"o":"m 176 -1 q 124 -109 171 -65 q 14 -153 78 -153 l 14 -193 q 167 -126 114 -193 q 221 57 221 -58 q 189 143 221 106 q 115 181 157 181 q 44 151 74 181 q 14 79 14 122 q 44 8 14 38 q 115 -22 74 -22 q 176 -1 149 -22 z "},"-":{"ha":732,"x_min":72,"x_max":667,"o":"m 72 506 l 667 506 l 667 465 l 72 465 l 72 506 z "},".":{"ha":231,"x_min":14,"x_max":217,"o":"m 115 -22 q 44 8 74 -22 q 14 79 14 38 q 44 151 14 122 q 115 181 74 181 q 187 151 157 181 q 217 79 217 122 q 187 8 217 38 q 115 -22 157 -22 z "},"/":{"ha":843,"x_min":44,"x_max":806,"o":"m 771 1104 l 44 -106 l 79 -126 l 806 1083 l 771 1104 z "},":":{"ha":229,"x_min":15,"x_max":218,"o":"m 117 492 q 45 522 75 492 q 15 593 15 551 q 45 665 15 636 q 117 694 75 694 q 188 665 158 694 q 218 593 218 636 q 188 522 218 551 q 117 492 158 492 m 117 -22 q 45 8 75 -22 q 15 79 15 38 q 45 151 15 122 q 117 181 75 181 q 188 151 158 181 q 218 79 218 122 q 188 8 218 38 q 117 -22 158 -22 z "},";":{"ha":243,"x_min":15,"x_max":222,"o":"m 117 492 q 188 522 158 492 q 218 593 218 551 q 188 665 218 636 q 117 694 158 694 q 45 665 75 694 q 15 593 15 636 q 45 522 15 551 q 117 492 75 492 m 178 -1 q 126 -109 172 -65 q 15 -153 79 -153 l 15 -193 q 168 -126 114 -193 q 222 57 222 -58 q 190 142 222 104 q 117 181 157 181 q 45 151 75 181 q 15 79 15 122 q 45 8 15 38 q 117 -22 75 -22 q 178 -1 147 -22 z "},"=":{"ha":856,"x_min":72,"x_max":751,"o":"m 72 588 l 751 588 l 751 547 l 72 547 l 72 588 m 72 421 l 751 421 l 751 381 l 72 381 l 72 421 z "},"?":{"ha":711,"x_min":33,"x_max":665,"o":"m 368 990 q 522 951 454 990 q 627 843 589 911 q 665 693 665 775 l 665 644 q 576 501 665 536 q 353 465 486 465 l 353 253 l 313 253 l 313 506 l 396 506 q 556 535 490 506 q 621 622 621 565 q 555 713 621 678 q 375 747 489 747 l 331 747 q 166 726 222 747 q 74 654 110 704 l 33 664 q 71 824 33 750 q 184 944 108 899 q 368 990 260 990 m 332 181 q 403 151 374 181 q 433 79 433 121 q 403 7 433 36 q 332 -22 374 -22 q 260 7 290 -22 q 231 79 231 36 q 260 151 231 121 q 332 181 290 181 z "},"@":{"ha":1203,"x_min":28,"x_max":1175,"o":"m 644 1017 q 910 946 789 1017 q 1103 753 1032 875 q 1175 490 1175 632 q 1154 328 1175 413 q 1092 185 1133 243 q 994 128 1051 128 q 940 149 961 128 q 919 204 919 171 l 919 360 q 783 195 875 258 q 589 132 692 132 l 532 132 q 356 179 436 132 q 228 308 275 226 q 181 485 181 389 q 228 661 181 581 q 356 789 275 742 q 532 836 436 836 l 589 836 q 785 772 693 836 q 919 608 876 708 l 919 790 l 961 790 l 961 222 q 967 185 961 197 q 994 172 974 172 q 1062 214 1029 172 q 1114 327 1094 256 q 1133 486 1133 399 q 1067 731 1133 618 q 889 909 1001 843 q 644 975 776 975 l 560 975 q 314 909 426 975 q 136 731 201 843 q 71 485 71 618 q 136 240 71 353 q 314 63 201 128 q 560 -3 426 -3 l 644 -3 q 762 12 701 -3 q 872 53 822 26 l 890 14 q 644 -46 774 -46 l 560 -46 q 293 26 415 -46 q 99 219 171 97 q 28 486 28 342 q 99 752 28 631 q 293 945 171 874 q 560 1017 415 1017 l 644 1017 m 588 301 q 725 319 647 301 q 860 376 803 338 q 917 475 917 415 q 871 572 917 528 q 749 642 825 617 q 588 668 674 668 l 535 668 q 370 643 446 668 q 250 576 294 618 q 206 485 206 533 q 250 393 206 435 q 370 326 294 351 q 535 301 446 301 l 588 301 z "},"A":{"ha":1194,"x_min":7,"x_max":1188,"o":"m 476 972 l 7 0 l 263 0 l 429 347 l 981 347 l 1143 0 l 1188 0 l 732 972 l 476 972 m 708 925 l 961 388 l 449 388 l 708 925 z "},"B":{"ha":1018,"x_min":56,"x_max":969,"o":"m 969 338 q 951 146 969 211 q 854 40 933 81 q 599 0 775 0 l 56 0 l 56 972 l 554 972 q 808 937 731 972 q 906 835 886 901 q 925 626 925 768 q 901 557 925 596 q 833 494 878 518 q 929 438 889 478 q 969 338 969 397 m 708 506 q 825 535 769 506 q 881 619 881 564 q 817 703 881 678 q 675 729 754 729 l 96 729 l 96 506 l 708 506 m 719 243 q 871 274 815 243 q 926 354 926 304 q 896 418 926 393 q 824 454 865 443 q 753 465 783 465 l 96 465 l 96 243 l 719 243 z "},"C":{"ha":1135,"x_min":28,"x_max":1107,"o":"m 28 485 q 95 740 28 624 q 282 924 163 856 q 549 992 401 992 l 601 992 q 831 942 725 992 q 1008 806 936 893 q 1107 606 1081 718 l 1043 593 q 869 706 986 663 q 613 749 753 749 l 538 749 q 301 713 410 749 q 128 617 193 678 q 64 485 64 557 q 128 353 64 414 q 301 258 193 293 q 538 222 410 222 l 613 222 q 869 265 753 222 q 1043 378 986 308 l 1107 365 q 1008 167 1079 254 q 832 29 938 79 q 601 -21 726 -21 l 549 -21 q 283 47 401 -21 q 96 231 164 115 q 28 485 28 347 z "},"D":{"ha":1050,"x_min":56,"x_max":1017,"o":"m 519 972 q 776 910 663 972 q 953 738 889 849 q 1017 486 1017 628 q 953 226 1017 336 q 778 58 890 115 q 519 0 665 0 l 56 0 l 56 972 l 519 972 m 96 243 l 519 243 q 733 268 626 243 q 910 348 839 293 q 981 488 981 403 q 911 625 981 571 q 736 704 842 679 q 519 729 631 729 l 96 729 l 96 243 z "},"E":{"ha":928,"x_min":56,"x_max":882,"o":"m 882 243 l 882 0 l 56 0 l 56 972 l 882 972 l 882 729 l 93 729 l 93 506 l 768 506 l 768 465 l 93 465 l 93 243 l 882 243 z "},"F":{"ha":869,"x_min":56,"x_max":842,"o":"m 729 467 l 94 467 l 94 1 l 56 1 l 56 972 l 842 972 l 842 729 l 94 729 l 94 507 l 729 507 l 729 467 z "},"G":{"ha":1149,"x_min":28,"x_max":1121,"o":"m 64 485 q 128 353 64 414 q 300 258 192 293 q 536 222 408 222 l 611 222 q 808 247 703 222 q 991 325 913 272 q 1081 454 1069 378 l 615 454 l 615 494 l 1121 494 l 1121 0 l 1081 0 l 1081 288 q 970 127 1042 197 q 804 18 899 57 q 607 -21 710 -21 l 542 -21 q 286 45 404 -21 q 98 228 168 111 q 28 488 28 344 q 97 744 28 629 q 285 926 167 860 q 542 992 403 992 l 607 992 q 827 942 722 992 q 1006 805 932 893 q 1107 606 1081 717 l 1043 593 q 869 706 986 663 q 611 749 753 749 l 536 749 q 300 713 408 749 q 128 617 192 678 q 64 485 64 557 z "},"H":{"ha":1042,"x_min":56,"x_max":986,"o":"m 986 0 l 946 0 l 946 365 l 96 365 l 96 0 l 56 0 l 56 972 l 96 972 l 96 607 l 946 607 l 946 972 l 986 972 l 986 0 z "},"I":{"ha":222,"x_min":0,"x_max":222,"o":"m 222 1179 q 190 1259 222 1226 q 111 1292 157 1292 q 33 1259 65 1292 q 0 1179 0 1226 q 33 1101 0 1133 q 111 1068 65 1068 q 190 1101 157 1068 q 222 1179 222 1133 m 90 972 l 90 0 l 131 0 l 131 972 l 90 972 z "},"J":{"ha":821,"x_min":19,"x_max":779,"o":"m 779 486 q 740 234 779 349 q 617 50 700 119 q 411 -19 533 -19 q 199 61 288 -19 q 65 251 110 142 q 19 440 19 361 l 60 449 q 180 285 96 347 q 397 224 264 224 q 577 263 501 224 q 693 365 653 301 q 739 506 733 429 l 739 729 l 238 729 l 238 972 l 779 972 l 779 486 z "},"K":{"ha":1094,"x_min":56,"x_max":1081,"o":"m 768 192 q 827 92 794 138 q 889 35 860 46 q 878 81 878 57 q 908 153 878 124 q 979 182 938 182 q 1051 153 1021 182 q 1081 83 1081 124 q 1047 10 1081 40 q 965 -21 1013 -21 q 863 1 903 -21 q 794 63 822 24 q 732 175 767 103 l 610 428 l 299 0 l 56 0 l 56 972 l 96 972 l 96 111 l 724 972 l 1007 972 l 638 464 l 768 192 z "},"L":{"ha":844,"x_min":56,"x_max":817,"o":"m 56 972 l 96 972 l 96 243 l 817 243 l 817 0 l 56 0 l 56 972 z "},"M":{"ha":1624,"x_min":0,"x_max":1568,"o":"m 785 842 l 271 0 l 0 0 l 596 972 l 825 972 l 825 135 l 1339 972 l 1568 972 l 1568 0 l 1528 0 l 1528 842 l 1014 0 l 785 0 l 785 842 z "},"N":{"ha":1111,"x_min":56,"x_max":1072,"o":"m 96 0 l 56 0 l 56 972 l 299 972 l 1032 118 l 1032 972 l 1072 972 l 1072 0 l 829 0 l 96 854 l 96 0 z "},"O":{"ha":1149,"x_min":28,"x_max":1121,"o":"m 601 992 q 865 924 746 992 q 1052 740 983 856 q 1121 486 1121 624 q 1052 231 1121 347 q 865 47 983 115 q 601 -21 746 -21 l 549 -21 q 283 47 403 -21 q 96 231 164 115 q 28 486 28 347 q 96 740 28 625 q 283 924 164 856 q 549 992 403 992 l 601 992 m 613 222 q 849 258 740 222 q 1021 353 957 293 q 1085 486 1085 414 q 1021 617 1085 557 q 849 713 957 678 q 613 749 740 749 l 538 749 q 301 713 410 749 q 128 617 192 678 q 64 486 64 557 q 128 353 64 414 q 301 258 192 293 q 538 222 410 222 l 613 222 z "},"P":{"ha":961,"x_min":56,"x_max":926,"o":"m 56 972 l 554 972 q 809 935 729 972 q 908 836 889 897 q 926 660 926 775 l 926 596 q 897 499 926 542 q 817 432 867 456 q 708 408 767 408 l 97 408 l 97 0 l 56 0 l 56 972 m 708 449 q 832 486 778 449 q 886 592 886 524 q 826 697 886 664 q 676 729 767 729 l 97 729 l 97 449 l 708 449 z "},"Q":{"ha":1150,"x_min":28,"x_max":1122,"o":"m 549 -22 q 286 46 406 -22 q 97 230 167 114 q 28 483 28 346 q 97 738 28 621 q 286 922 167 854 q 549 990 406 990 l 601 990 q 865 922 746 990 q 1053 738 985 854 q 1122 483 1122 621 q 1072 265 1122 367 q 935 92 1022 163 q 1045 20 1001 75 q 1089 -104 1089 -35 q 1060 -207 1089 -160 q 983 -282 1031 -254 q 882 -310 935 -310 l 835 -310 q 749 -278 783 -310 q 715 -204 715 -246 q 745 -136 715 -165 q 817 -107 775 -107 q 888 -137 858 -107 q 918 -208 918 -167 q 897 -269 918 -244 q 1005 -217 961 -264 q 1049 -107 1049 -171 q 1002 9 1049 -39 q 889 57 956 57 q 601 -22 764 -22 l 549 -22 m 65 483 q 129 351 65 411 q 301 256 193 292 q 538 221 410 221 l 613 221 q 849 256 740 221 q 1021 351 957 292 q 1085 483 1085 411 q 1021 616 1085 556 q 849 712 957 676 q 613 747 740 747 l 538 747 q 301 712 410 747 q 129 616 193 676 q 65 483 65 556 z "},"R":{"ha":1074,"x_min":56,"x_max":1067,"o":"m 1067 82 q 1035 10 1067 40 q 964 -21 1004 -21 q 846 8 893 -21 q 769 82 799 36 q 706 204 740 128 q 649 317 671 278 l 606 408 l 96 408 l 96 0 l 56 0 l 56 972 l 96 972 l 96 971 l 554 971 q 798 936 719 971 q 901 825 876 901 q 926 596 926 749 q 859 458 919 507 q 708 408 799 408 l 650 408 l 750 201 q 809 97 779 140 q 875 35 839 53 q 864 81 864 57 q 894 153 864 124 q 965 182 924 182 q 1037 153 1007 182 q 1067 82 1067 124 m 708 449 q 833 488 781 449 q 886 594 886 526 q 827 697 886 664 q 676 729 768 729 l 96 729 l 96 449 l 708 449 z "},"S":{"ha":1097,"x_min":28,"x_max":1069,"o":"m 547 992 q 263 925 376 992 q 98 769 150 858 q 46 608 46 679 q 120 498 46 525 q 317 471 194 471 l 626 471 q 832 466 758 471 q 953 441 906 461 q 1001 378 1001 421 q 936 292 1001 328 q 776 239 871 257 q 592 221 681 221 l 517 221 q 273 256 372 221 q 85 379 174 292 l 28 368 q 565 -21 139 -21 q 815 33 706 -21 q 983 176 924 88 q 1043 363 1043 265 q 967 480 1043 451 q 790 508 892 508 l 414 508 q 219 517 289 508 q 119 544 149 526 q 90 593 90 563 q 158 681 90 646 q 323 731 226 715 q 506 747 419 747 l 581 747 q 824 713 715 747 q 1011 592 932 679 l 1069 603 q 883 892 1019 792 q 547 992 746 992 z "},"T":{"ha":997,"x_min":14,"x_max":983,"o":"m 478 0 l 478 729 l 14 729 l 14 972 l 983 972 l 983 729 l 518 729 l 518 0 l 478 0 z "},"U":{"ha":988,"x_min":42,"x_max":946,"o":"m 82 504 q 137 366 82 431 q 286 263 192 301 q 493 224 381 224 q 701 262 606 224 q 851 365 796 300 q 906 504 906 429 l 906 972 l 946 972 l 946 507 q 891 258 946 381 q 733 58 836 136 q 494 -19 631 -19 l 493 -19 q 251 60 354 -19 q 95 261 149 139 q 42 507 42 383 l 42 972 l 82 972 l 82 504 z "},"V":{"ha":1196,"x_min":7,"x_max":1189,"o":"m 719 0 l 1189 972 l 933 972 l 486 46 l 51 972 l 7 972 l 464 0 l 719 0 z "},"W":{"ha":1808,"x_min":7,"x_max":1801,"o":"m 1801 972 l 1551 972 l 1190 103 l 926 724 l 822 972 l 781 972 l 418 103 l 51 972 l 7 972 l 418 0 l 626 0 l 906 671 l 1189 0 l 1397 0 l 1801 972 z "},"X":{"ha":1006,"x_min":7,"x_max":999,"o":"m 439 592 l 715 972 l 999 972 l 593 414 l 954 0 l 899 0 l 568 381 l 290 0 l 7 0 l 414 557 l 53 972 l 107 972 l 439 592 z "},"Y":{"ha":1022,"x_min":7,"x_max":1015,"o":"m 396 507 l 57 972 l 7 972 l 492 306 l 492 0 l 532 0 l 532 306 l 1015 972 l 732 972 l 396 507 z "},"Z":{"ha":1046,"x_min":14,"x_max":1032,"o":"m 1032 971 l 1032 919 l 283 243 l 1015 243 l 1015 0 l 14 0 l 14 51 l 764 728 l 63 728 l 63 971 l 1032 971 z "},"[":{"ha":410,"x_min":50,"x_max":365,"o":"m 365 1081 l 365 1040 l 90 1040 l 90 -67 l 365 -67 l 365 -107 l 50 -107 l 50 1081 l 365 1081 z "},"\\":{"ha":843,"x_min":51,"x_max":813,"o":"m 86 1104 l 813 -106 l 778 -126 l 51 1083 l 86 1104 z "},"]":{"ha":410,"x_min":50,"x_max":365,"o":"m 50 1081 l 50 1040 l 325 1040 l 325 -67 l 50 -67 l 50 -107 l 365 -107 l 365 1081 l 50 1081 z "},"_":{"ha":758,"x_min":36,"x_max":715,"o":"m 36 40 l 715 40 l 715 0 l 36 0 l 36 40 z "},"a":{"ha":1194,"x_min":7,"x_max":1188,"o":"m 476 972 l 7 0 l 263 0 l 429 347 l 981 347 l 1143 0 l 1188 0 l 732 972 l 476 972 m 708 925 l 961 388 l 449 388 l 708 925 z "},"b":{"ha":1018,"x_min":56,"x_max":969,"o":"m 969 338 q 951 146 969 211 q 854 40 933 81 q 599 0 775 0 l 56 0 l 56 972 l 554 972 q 808 937 731 972 q 906 835 886 901 q 925 626 925 768 q 901 557 925 596 q 833 494 878 518 q 929 438 889 478 q 969 338 969 397 m 708 506 q 825 535 769 506 q 881 619 881 564 q 817 703 881 678 q 675 729 754 729 l 96 729 l 96 506 l 708 506 m 719 243 q 871 274 815 243 q 926 354 926 304 q 896 418 926 393 q 824 454 865 443 q 753 465 783 465 l 96 465 l 96 243 l 719 243 z "},"c":{"ha":1135,"x_min":28,"x_max":1107,"o":"m 28 485 q 95 740 28 624 q 282 924 163 856 q 549 992 401 992 l 601 992 q 831 942 725 992 q 1008 806 936 893 q 1107 606 1081 718 l 1043 593 q 869 706 986 663 q 613 749 753 749 l 538 749 q 301 713 410 749 q 128 617 193 678 q 64 485 64 557 q 128 353 64 414 q 301 258 193 293 q 538 222 410 222 l 613 222 q 869 265 753 222 q 1043 378 986 308 l 1107 365 q 1008 167 1079 254 q 832 29 938 79 q 601 -21 726 -21 l 549 -21 q 283 47 401 -21 q 96 231 164 115 q 28 485 28 347 z "},"d":{"ha":1050,"x_min":56,"x_max":1017,"o":"m 519 972 q 776 910 663 972 q 953 738 889 849 q 1017 486 1017 628 q 953 226 1017 336 q 778 58 890 115 q 519 0 665 0 l 56 0 l 56 972 l 519 972 m 96 243 l 519 243 q 733 268 626 243 q 910 348 839 293 q 981 488 981 403 q 911 625 981 571 q 736 704 842 679 q 519 729 631 729 l 96 729 l 96 243 z "},"e":{"ha":928,"x_min":56,"x_max":882,"o":"m 882 243 l 882 0 l 56 0 l 56 972 l 882 972 l 882 729 l 93 729 l 93 506 l 768 506 l 768 465 l 93 465 l 93 243 l 882 243 z "},"f":{"ha":869,"x_min":56,"x_max":842,"o":"m 729 467 l 94 467 l 94 1 l 56 1 l 56 972 l 842 972 l 842 729 l 94 729 l 94 507 l 729 507 l 729 467 z "},"g":{"ha":1149,"x_min":28,"x_max":1121,"o":"m 64 485 q 128 353 64 414 q 300 258 192 293 q 536 222 408 222 l 611 222 q 808 247 703 222 q 991 325 913 272 q 1081 454 1069 378 l 615 454 l 615 494 l 1121 494 l 1121 0 l 1081 0 l 1081 288 q 970 127 1042 197 q 804 18 899 57 q 607 -21 710 -21 l 542 -21 q 286 45 404 -21 q 98 228 168 111 q 28 488 28 344 q 97 744 28 629 q 285 926 167 860 q 542 992 403 992 l 607 992 q 827 942 722 992 q 1006 805 932 893 q 1107 606 1081 717 l 1043 593 q 869 706 986 663 q 611 749 753 749 l 536 749 q 300 713 408 749 q 128 617 192 678 q 64 485 64 557 z "},"h":{"ha":1042,"x_min":56,"x_max":986,"o":"m 986 0 l 946 0 l 946 365 l 96 365 l 96 0 l 56 0 l 56 972 l 96 972 l 96 607 l 946 607 l 946 972 l 986 972 l 986 0 z "},"i":{"ha":222,"x_min":0,"x_max":222,"o":"m 222 1179 q 190 1259 222 1226 q 111 1292 157 1292 q 33 1259 65 1292 q 0 1179 0 1226 q 33 1101 0 1133 q 111 1068 65 1068 q 190 1101 157 1068 q 222 1179 222 1133 m 90 972 l 90 0 l 131 0 l 131 972 l 90 972 z "},"j":{"ha":821,"x_min":19,"x_max":779,"o":"m 779 486 q 740 234 779 349 q 617 50 700 119 q 411 -19 533 -19 q 199 61 288 -19 q 65 251 110 142 q 19 440 19 361 l 60 449 q 180 285 96 347 q 397 224 264 224 q 577 263 501 224 q 693 365 653 301 q 739 506 733 429 l 739 729 l 238 729 l 238 972 l 779 972 l 779 486 z "},"k":{"ha":1094,"x_min":56,"x_max":1081,"o":"m 768 192 q 827 92 794 138 q 889 35 860 46 q 878 81 878 57 q 908 153 878 124 q 979 182 938 182 q 1051 153 1021 182 q 1081 83 1081 124 q 1047 10 1081 40 q 965 -21 1013 -21 q 863 1 903 -21 q 794 63 822 24 q 732 175 767 103 l 610 428 l 299 0 l 56 0 l 56 972 l 96 972 l 96 111 l 724 972 l 1007 972 l 638 464 l 768 192 z "},"l":{"ha":844,"x_min":56,"x_max":817,"o":"m 56 972 l 96 972 l 96 243 l 817 243 l 817 0 l 56 0 l 56 972 z "},"m":{"ha":1624,"x_min":0,"x_max":1568,"o":"m 785 842 l 271 0 l 0 0 l 596 972 l 825 972 l 825 135 l 1339 972 l 1568 972 l 1568 0 l 1528 0 l 1528 842 l 1014 0 l 785 0 l 785 842 z "},"n":{"ha":1111,"x_min":56,"x_max":1072,"o":"m 96 0 l 56 0 l 56 972 l 299 972 l 1032 118 l 1032 972 l 1072 972 l 1072 0 l 829 0 l 96 854 l 96 0 z "},"o":{"ha":1149,"x_min":28,"x_max":1121,"o":"m 601 992 q 865 924 746 992 q 1052 740 983 856 q 1121 486 1121 624 q 1052 231 1121 347 q 865 47 983 115 q 601 -21 746 -21 l 549 -21 q 283 47 403 -21 q 96 231 164 115 q 28 486 28 347 q 96 740 28 625 q 283 924 164 856 q 549 992 403 992 l 601 992 m 613 222 q 849 258 740 222 q 1021 353 957 293 q 1085 486 1085 414 q 1021 617 1085 557 q 849 713 957 678 q 613 749 740 749 l 538 749 q 301 713 410 749 q 128 617 192 678 q 64 486 64 557 q 128 353 64 414 q 301 258 192 293 q 538 222 410 222 l 613 222 z "},"p":{"ha":961,"x_min":56,"x_max":926,"o":"m 56 972 l 554 972 q 809 935 729 972 q 908 836 889 897 q 926 660 926 775 l 926 596 q 897 499 926 542 q 817 432 867 456 q 708 408 767 408 l 97 408 l 97 0 l 56 0 l 56 972 m 708 449 q 832 486 778 449 q 886 592 886 524 q 826 697 886 664 q 676 729 767 729 l 97 729 l 97 449 l 708 449 z "},"q":{"ha":1150,"x_min":28,"x_max":1122,"o":"m 549 -22 q 286 46 406 -22 q 97 230 167 114 q 28 483 28 346 q 97 738 28 621 q 286 922 167 854 q 549 990 406 990 l 601 990 q 865 922 746 990 q 1053 738 985 854 q 1122 483 1122 621 q 1072 265 1122 367 q 935 92 1022 163 q 1045 20 1001 75 q 1089 -104 1089 -35 q 1060 -207 1089 -160 q 983 -282 1031 -254 q 882 -310 935 -310 l 835 -310 q 749 -278 783 -310 q 715 -204 715 -246 q 745 -136 715 -165 q 817 -107 775 -107 q 888 -137 858 -107 q 918 -208 918 -167 q 897 -269 918 -244 q 1005 -217 961 -264 q 1049 -107 1049 -171 q 1002 9 1049 -39 q 889 57 956 57 q 601 -22 764 -22 l 549 -22 m 65 483 q 129 351 65 411 q 301 256 193 292 q 538 221 410 221 l 613 221 q 849 256 740 221 q 1021 351 957 292 q 1085 483 1085 411 q 1021 616 1085 556 q 849 712 957 676 q 613 747 740 747 l 538 747 q 301 712 410 747 q 129 616 193 676 q 65 483 65 556 z "},"r":{"ha":1074,"x_min":56,"x_max":1067,"o":"m 1067 82 q 1035 10 1067 40 q 964 -21 1004 -21 q 846 8 893 -21 q 769 82 799 36 q 706 204 740 128 q 649 317 671 278 l 606 408 l 96 408 l 96 0 l 56 0 l 56 972 l 96 972 l 96 971 l 554 971 q 798 936 719 971 q 901 825 876 901 q 926 596 926 749 q 859 458 919 507 q 708 408 799 408 l 650 408 l 750 201 q 809 97 779 140 q 875 35 839 53 q 864 81 864 57 q 894 153 864 124 q 965 182 924 182 q 1037 153 1007 182 q 1067 82 1067 124 m 708 449 q 833 488 781 449 q 886 594 886 526 q 827 697 886 664 q 676 729 768 729 l 96 729 l 96 449 l 708 449 z "},"s":{"ha":1097,"x_min":28,"x_max":1069,"o":"m 547 992 q 263 925 376 992 q 98 769 150 858 q 46 608 46 679 q 120 498 46 525 q 317 471 194 471 l 626 471 q 832 466 758 471 q 953 441 906 461 q 1001 378 1001 421 q 936 292 1001 328 q 776 239 871 257 q 592 221 681 221 l 517 221 q 273 256 372 221 q 85 379 174 292 l 28 368 q 565 -21 139 -21 q 815 33 706 -21 q 983 176 924 88 q 1043 363 1043 265 q 967 480 1043 451 q 790 508 892 508 l 414 508 q 219 517 289 508 q 119 544 149 526 q 90 593 90 563 q 158 681 90 646 q 323 731 226 715 q 506 747 419 747 l 581 747 q 824 713 715 747 q 1011 592 932 679 l 1069 603 q 883 892 1019 792 q 547 992 746 992 z "},"t":{"ha":997,"x_min":14,"x_max":983,"o":"m 478 0 l 478 729 l 14 729 l 14 972 l 983 972 l 983 729 l 518 729 l 518 0 l 478 0 z "},"u":{"ha":988,"x_min":42,"x_max":946,"o":"m 82 504 q 137 366 82 431 q 286 263 192 301 q 493 224 381 224 q 701 262 606 224 q 851 365 796 300 q 906 504 906 429 l 906 972 l 946 972 l 946 507 q 891 258 946 381 q 733 58 836 136 q 494 -19 631 -19 l 493 -19 q 251 60 354 -19 q 95 261 149 139 q 42 507 42 383 l 42 972 l 82 972 l 82 504 z "},"v":{"ha":1196,"x_min":7,"x_max":1189,"o":"m 719 0 l 1189 972 l 933 972 l 486 46 l 51 972 l 7 972 l 464 0 l 719 0 z "},"w":{"ha":1808,"x_min":7,"x_max":1801,"o":"m 1801 972 l 1551 972 l 1190 103 l 926 724 l 822 972 l 781 972 l 418 103 l 51 972 l 7 972 l 418 0 l 626 0 l 906 671 l 1189 0 l 1397 0 l 1801 972 z "},"x":{"ha":1006,"x_min":7,"x_max":999,"o":"m 439 592 l 715 972 l 999 972 l 593 414 l 954 0 l 899 0 l 568 381 l 290 0 l 7 0 l 414 557 l 53 972 l 107 972 l 439 592 z "},"y":{"ha":1022,"x_min":7,"x_max":1015,"o":"m 396 507 l 57 972 l 7 972 l 492 306 l 492 0 l 532 0 l 532 306 l 1015 972 l 732 972 l 396 507 z "},"z":{"ha":1046,"x_min":14,"x_max":1032,"o":"m 1032 971 l 1032 919 l 283 243 l 1015 243 l 1015 0 l 14 0 l 14 51 l 764 728 l 63 728 l 63 971 l 1032 971 z "},"©":{"ha":1149,"x_min":28,"x_max":1121,"o":"m 615 992 q 869 924 753 992 q 1053 739 985 856 q 1121 485 1121 622 q 1053 231 1121 347 q 869 47 985 115 q 615 -21 753 -21 l 533 -21 q 281 47 397 -21 q 96 232 164 115 q 28 485 28 349 q 96 739 28 622 q 280 924 164 856 q 533 992 396 992 l 615 992 m 533 951 q 300 888 407 951 q 131 718 193 825 q 68 485 68 611 q 131 251 68 358 q 300 82 193 144 q 533 19 407 19 l 615 19 q 849 83 742 19 q 1018 253 956 146 q 1081 488 1081 360 q 1017 720 1081 614 q 847 889 954 826 q 615 951 740 951 l 533 951 m 606 306 q 786 333 706 306 q 906 410 867 361 l 950 401 q 882 263 932 325 q 760 167 832 201 q 607 132 689 132 l 551 132 q 374 179 456 132 q 246 308 293 226 q 199 485 199 389 q 246 662 199 581 q 374 790 293 743 q 551 838 456 838 l 607 838 q 760 803 688 838 q 882 708 832 769 q 950 568 932 646 l 906 560 q 786 636 867 608 q 606 664 706 664 l 553 664 q 392 640 464 664 q 278 576 319 617 q 236 485 236 535 q 278 394 236 435 q 392 329 319 353 q 553 306 464 306 l 606 306 z "},"«":{"ha":771,"x_min":56,"x_max":654,"o":"m 114 342 l 439 653 l 411 682 l 56 342 l 411 0 l 439 29 l 114 342 m 328 342 l 654 653 l 626 682 l 269 342 l 626 0 l 654 29 l 328 342 z "},"»":{"ha":771,"x_min":74,"x_max":672,"o":"m 400 342 l 74 653 l 101 682 l 457 342 l 101 0 l 74 29 l 400 342 m 614 342 l 288 653 l 315 682 l 672 342 l 315 0 l 288 29 l 614 342 z "},"Ё":{"ha":913,"x_min":56,"x_max":882,"o":"m 186 1179 q 219 1259 186 1226 q 299 1292 251 1292 q 377 1259 344 1292 q 410 1179 410 1226 q 377 1101 410 1133 q 299 1068 344 1068 q 219 1101 251 1068 q 186 1179 186 1133 m 504 1179 q 537 1259 504 1226 q 615 1292 569 1292 q 694 1259 661 1292 q 726 1179 726 1226 q 694 1101 726 1133 q 615 1068 661 1068 q 537 1101 569 1068 q 504 1179 504 1133 m 882 243 l 882 0 l 56 0 l 56 972 l 882 972 l 882 729 l 93 729 l 93 506 l 768 506 l 768 465 l 93 465 l 93 243 l 882 243 z "},"Є":{"ha":1154,"x_min":28,"x_max":1107,"o":"m 65 507 q 140 630 75 574 q 310 718 206 686 q 536 750 415 750 l 611 750 q 869 707 753 750 q 1043 594 986 664 l 1107 607 q 1005 810 1081 722 q 825 945 929 897 q 607 993 721 993 l 542 993 q 287 927 406 993 q 98 745 168 861 q 28 488 28 629 q 97 231 28 347 q 283 48 165 115 q 542 -19 400 -19 l 607 -19 q 831 30 726 -19 q 1007 167 935 79 q 1107 367 1079 254 l 1043 379 q 869 267 986 310 q 611 224 753 224 l 536 224 q 310 256 415 224 q 140 344 206 288 q 65 467 75 400 l 883 467 l 883 507 l 65 507 z "},"І":{"ha":222,"x_min":0,"x_max":222,"o":"m 222 1179 q 190 1259 222 1226 q 111 1292 157 1292 q 33 1259 65 1292 q 0 1179 0 1226 q 33 1101 0 1133 q 111 1068 65 1068 q 190 1101 157 1068 q 222 1179 222 1133 m 90 972 l 90 0 l 131 0 l 131 972 l 90 972 z "},"Ї":{"ha":221,"x_min":-160,"x_max":381,"o":"m 63 1179 q 30 1259 63 1226 q -49 1292 -3 1292 q -127 1259 -94 1292 q -160 1179 -160 1226 q -127 1101 -160 1133 q -49 1068 -94 1068 q 30 1101 -3 1068 q 63 1179 63 1133 m 381 1179 q 348 1259 381 1226 q 268 1292 315 1292 q 190 1259 222 1292 q 157 1179 157 1226 q 190 1101 157 1133 q 268 1068 222 1068 q 348 1101 315 1068 q 381 1179 381 1133 m 90 972 l 90 0 l 131 0 l 131 972 l 90 972 z "},"А":{"ha":1194,"x_min":7,"x_max":1188,"o":"m 476 972 l 7 0 l 263 0 l 429 347 l 981 347 l 1143 0 l 1188 0 l 732 972 l 476 972 m 708 925 l 961 388 l 449 388 l 708 925 z "},"Б":{"ha":975,"x_min":56,"x_max":926,"o":"m 708 564 q 815 540 765 564 q 896 474 865 517 q 926 375 926 431 l 926 311 q 905 138 926 201 q 803 38 883 75 q 554 0 722 0 l 56 0 l 56 972 l 864 972 l 864 729 l 96 729 l 96 564 l 708 564 m 886 388 q 859 461 886 431 q 791 508 832 492 q 708 524 750 524 l 96 524 l 96 243 l 676 243 q 824 269 761 243 q 886 388 886 294 z "},"В":{"ha":1018,"x_min":56,"x_max":969,"o":"m 969 338 q 951 146 969 211 q 854 40 933 81 q 599 0 775 0 l 56 0 l 56 972 l 554 972 q 808 937 731 972 q 906 835 886 901 q 925 626 925 768 q 901 557 925 596 q 833 494 878 518 q 929 438 889 478 q 969 338 969 397 m 708 506 q 825 535 769 506 q 881 619 881 564 q 817 703 881 678 q 675 729 754 729 l 96 729 l 96 506 l 708 506 m 719 243 q 871 274 815 243 q 926 354 926 304 q 896 418 926 393 q 824 454 865 443 q 753 465 783 465 l 96 465 l 96 243 l 719 243 z "},"Г":{"ha":890,"x_min":56,"x_max":843,"o":"m 843 728 l 96 728 l 96 0 l 56 0 l 56 971 l 843 971 l 843 728 z "},"Д":{"ha":1115,"x_min":14,"x_max":1101,"o":"m 1101 -208 l 1061 -208 l 1061 0 l 54 0 l 54 -208 l 14 -208 l 14 243 l 140 243 l 326 972 l 975 972 l 975 243 l 1101 243 l 1101 -208 m 935 243 l 935 729 l 306 729 l 181 243 l 935 243 z "},"Е":{"ha":928,"x_min":56,"x_max":882,"o":"m 882 243 l 882 0 l 56 0 l 56 972 l 882 972 l 882 729 l 93 729 l 93 506 l 768 506 l 768 465 l 93 465 l 93 243 l 882 243 z "},"Ж":{"ha":1632,"x_min":14,"x_max":1618,"o":"m 796 506 l 796 972 l 836 972 l 836 506 l 921 506 l 1261 972 l 1544 972 l 1175 465 l 1306 192 q 1417 40 1361 75 l 1426 35 q 1415 81 1415 57 q 1444 153 1415 124 q 1517 182 1474 182 q 1588 153 1558 182 q 1618 83 1618 124 q 1586 10 1618 40 q 1511 -21 1554 -21 q 1363 32 1415 -21 q 1269 174 1311 85 l 1129 465 l 836 465 l 836 0 l 796 0 l 796 465 l 710 465 l 371 0 l 88 0 l 458 506 l 325 781 q 213 933 271 894 l 206 938 q 217 890 217 915 q 187 819 217 849 q 115 789 157 789 q 44 819 74 789 q 14 889 14 849 q 42 960 14 928 q 135 992 71 992 q 269 938 218 992 q 361 799 321 885 l 501 506 l 796 506 z "},"З":{"ha":1065,"x_min":7,"x_max":1038,"o":"m 932 492 q 1013 444 988 472 q 1038 371 1038 417 q 990 199 1038 290 q 835 44 942 108 q 563 -19 728 -19 l 524 -19 q 297 28 406 -19 q 112 163 189 76 q 7 361 35 250 l 67 376 q 265 268 149 313 q 513 224 382 224 l 582 224 q 758 242 660 224 q 926 294 856 260 q 996 378 996 329 q 947 442 996 418 q 824 467 899 467 l 231 467 l 231 507 l 794 507 q 917 531 869 507 q 965 597 965 556 q 902 679 965 644 q 749 732 839 714 q 582 750 658 750 l 517 750 q 280 720 382 750 q 99 628 178 690 l 39 642 q 224 899 96 806 q 529 993 351 993 q 782 934 674 993 q 948 786 890 875 q 1006 613 1006 697 q 987 538 1006 565 q 932 492 968 510 z "},"И":{"ha":1129,"x_min":56,"x_max":1074,"o":"m 1074 972 l 1074 0 l 1032 0 l 1032 854 l 299 0 l 56 0 l 56 972 l 96 972 l 96 118 l 831 972 l 1074 972 z "},"Й":{"ha":1129,"x_min":56,"x_max":1074,"o":"m 676 1179 q 644 1101 676 1133 q 565 1068 611 1068 q 485 1101 518 1068 q 453 1179 453 1133 q 485 1259 453 1226 q 565 1292 518 1292 q 644 1259 611 1292 q 676 1179 676 1226 m 1074 972 l 1074 0 l 1033 0 l 1033 854 l 299 0 l 56 0 l 56 972 l 97 972 l 97 118 l 831 972 l 1074 972 z "},"К":{"ha":1094,"x_min":56,"x_max":1081,"o":"m 768 192 q 827 92 794 138 q 889 35 860 46 q 878 81 878 57 q 908 153 878 124 q 979 182 938 182 q 1051 153 1021 182 q 1081 83 1081 124 q 1047 10 1081 40 q 965 -21 1013 -21 q 863 1 903 -21 q 794 63 822 24 q 732 175 767 103 l 610 428 l 299 0 l 56 0 l 56 972 l 96 972 l 96 111 l 724 972 l 1007 972 l 638 464 l 768 192 z "},"Л":{"ha":1183,"x_min":0,"x_max":1128,"o":"m 292 150 q 108 -21 257 -21 q 33 9 65 -21 q 0 82 0 39 q 30 153 0 124 q 103 182 60 182 q 174 151 146 182 q 201 79 201 121 q 197 51 201 64 q 234 101 219 67 q 260 194 249 136 l 419 971 l 1128 971 l 1128 0 l 1088 0 l 1088 728 l 411 728 l 292 150 z "},"М":{"ha":1624,"x_min":0,"x_max":1568,"o":"m 785 842 l 271 0 l 0 0 l 596 972 l 825 972 l 825 135 l 1339 972 l 1568 972 l 1568 0 l 1528 0 l 1528 842 l 1014 0 l 785 0 l 785 842 z "},"Н":{"ha":1042,"x_min":56,"x_max":986,"o":"m 986 0 l 946 0 l 946 365 l 96 365 l 96 0 l 56 0 l 56 972 l 96 972 l 96 607 l 946 607 l 946 972 l 986 972 l 986 0 z "},"О":{"ha":1149,"x_min":28,"x_max":1121,"o":"m 601 992 q 865 924 746 992 q 1052 740 983 856 q 1121 486 1121 624 q 1052 231 1121 347 q 865 47 983 115 q 601 -21 746 -21 l 549 -21 q 283 47 403 -21 q 96 231 164 115 q 28 486 28 347 q 96 740 28 625 q 283 924 164 856 q 549 992 403 992 l 601 992 m 613 222 q 849 258 740 222 q 1021 353 957 293 q 1085 486 1085 414 q 1021 617 1085 557 q 849 713 957 678 q 613 749 740 749 l 538 749 q 301 713 410 749 q 128 617 192 678 q 64 486 64 557 q 128 353 64 414 q 301 258 192 293 q 538 222 410 222 l 613 222 z "},"П":{"ha":1043,"x_min":56,"x_max":988,"o":"m 96 -1 l 56 -1 l 56 971 l 988 971 l 988 -1 l 946 -1 l 946 728 l 96 728 l 96 -1 z "},"Р":{"ha":961,"x_min":56,"x_max":926,"o":"m 56 972 l 554 972 q 809 935 729 972 q 908 836 889 897 q 926 660 926 775 l 926 596 q 897 499 926 542 q 817 432 867 456 q 708 408 767 408 l 97 408 l 97 0 l 56 0 l 56 972 m 708 449 q 832 486 778 449 q 886 592 886 524 q 826 697 886 664 q 676 729 767 729 l 97 729 l 97 449 l 708 449 z "},"С":{"ha":1135,"x_min":28,"x_max":1107,"o":"m 28 485 q 95 740 28 624 q 282 924 163 856 q 549 992 401 992 l 601 992 q 831 942 725 992 q 1008 806 936 893 q 1107 606 1081 718 l 1043 593 q 869 706 986 663 q 613 749 753 749 l 538 749 q 301 713 410 749 q 128 617 193 678 q 64 485 64 557 q 128 353 64 414 q 301 258 193 293 q 538 222 410 222 l 613 222 q 869 265 753 222 q 1043 378 986 308 l 1107 365 q 1008 167 1079 254 q 832 29 938 79 q 601 -21 726 -21 l 549 -21 q 283 47 401 -21 q 96 231 164 115 q 28 485 28 347 z "},"Т":{"ha":997,"x_min":14,"x_max":983,"o":"m 478 0 l 478 729 l 14 729 l 14 972 l 983 972 l 983 729 l 518 729 l 518 0 l 478 0 z "},"У":{"ha":1031,"x_min":7,"x_max":1024,"o":"m 7 971 l 56 971 l 411 411 l 754 972 l 1024 972 l 431 0 l 158 0 l 386 372 l 7 971 z "},"Ф":{"ha":1149,"x_min":28,"x_max":1121,"o":"m 615 992 q 869 924 753 992 q 1053 740 985 856 q 1121 486 1121 624 q 1053 232 1121 349 q 869 47 985 115 q 615 -21 753 -21 l 594 -21 l 594 -183 l 554 -183 l 554 -21 l 533 -21 q 280 47 396 -21 q 96 232 164 115 q 28 486 28 349 q 96 740 28 624 q 280 924 164 856 q 533 992 396 992 l 554 992 l 554 1154 l 594 1154 l 594 992 l 615 992 m 64 483 q 126 352 64 413 q 299 257 188 292 q 554 222 411 222 l 554 749 q 303 713 415 749 q 128 617 192 678 q 64 483 64 557 m 594 222 q 840 258 728 222 q 1019 354 953 293 q 1085 488 1085 415 q 1021 618 1085 558 q 844 713 957 678 q 594 749 732 749 l 594 222 z "},"Х":{"ha":1006,"x_min":7,"x_max":999,"o":"m 439 592 l 715 972 l 999 972 l 593 414 l 954 0 l 899 0 l 568 381 l 290 0 l 7 0 l 414 557 l 53 972 l 107 972 l 439 592 z "},"Ц":{"ha":996,"x_min":56,"x_max":1065,"o":"m 863 39 q 965 12 918 39 q 1038 -62 1011 -15 q 1065 -164 1065 -110 q 1037 -266 1065 -219 q 961 -340 1008 -312 q 858 -368 914 -368 l 817 -368 q 727 -340 763 -368 q 692 -267 692 -312 q 721 -195 692 -225 q 793 -165 750 -165 q 865 -195 835 -165 q 894 -267 894 -225 q 874 -328 894 -297 q 981 -275 938 -322 q 1025 -164 1025 -228 q 977 -48 1025 -96 q 861 0 929 0 l 56 0 l 56 971 l 96 971 l 96 242 l 822 242 l 822 971 l 863 971 l 863 39 z "},"Ч":{"ha":954,"x_min":35,"x_max":925,"o":"m 925 0 l 885 0 l 885 326 l 407 326 q 156 361 233 326 q 56 466 78 396 q 35 685 35 536 l 35 972 l 75 972 l 75 813 q 86 664 75 711 q 141 593 97 617 q 285 569 185 569 l 885 569 l 885 972 l 925 972 l 925 0 z "},"Ш":{"ha":1263,"x_min":56,"x_max":1207,"o":"m 96 243 l 611 243 l 611 972 l 651 972 l 651 243 l 1167 243 l 1167 972 l 1207 972 l 1207 0 l 56 0 l 56 972 l 96 972 l 96 243 z "},"Щ":{"ha":1264,"x_min":56,"x_max":1333,"o":"m 1132 40 q 1233 13 1186 40 q 1306 -62 1279 -15 q 1333 -164 1333 -108 q 1304 -266 1333 -219 q 1226 -340 1275 -312 q 1122 -368 1178 -368 l 1086 -368 q 993 -336 1026 -368 q 960 -262 960 -304 q 990 -194 960 -222 q 1061 -165 1019 -165 q 1133 -194 1103 -165 q 1163 -267 1163 -224 q 1143 -326 1163 -300 q 1249 -274 1206 -321 q 1293 -164 1293 -228 q 1245 -48 1293 -96 q 1129 0 1197 0 l 56 0 l 56 972 l 96 972 l 96 243 l 574 243 l 574 972 l 614 972 l 614 243 l 1092 243 l 1092 972 l 1132 972 l 1132 40 z "},"Ъ":{"ha":1314,"x_min":17,"x_max":1263,"o":"m 1261 311 q 1241 138 1263 201 q 1139 38 1219 75 q 889 0 1058 0 l 390 0 l 390 776 q 344 905 390 858 q 228 951 297 951 q 117 908 164 951 q 64 800 69 864 q 126 821 90 821 q 198 792 169 821 q 226 719 226 764 q 199 650 226 678 q 126 622 171 622 q 44 666 72 622 q 17 776 17 710 q 46 882 17 832 q 124 962 75 932 q 228 992 172 992 q 329 964 282 992 q 404 889 376 936 q 432 788 432 842 l 432 564 l 1043 564 q 1149 540 1099 564 q 1230 474 1199 517 q 1261 375 1261 431 l 1261 311 m 1011 243 q 1160 273 1100 243 q 1221 381 1221 303 q 1194 459 1221 426 q 1126 508 1167 492 q 1043 524 1085 524 l 432 524 l 432 243 l 1011 243 z "},"Ы":{"ha":1185,"x_min":56,"x_max":1129,"o":"m 919 428 q 841 526 904 489 q 710 564 778 564 l 97 564 l 97 972 l 56 972 l 56 0 l 554 0 q 769 31 689 0 q 888 132 850 61 q 926 326 926 203 q 919 428 926 396 m 1129 971 l 1089 971 l 1089 -1 l 1129 -1 l 1129 971 m 888 376 q 822 269 888 296 q 676 243 756 243 l 97 243 l 97 524 l 710 524 q 835 484 783 524 q 888 376 888 444 z "},"Ь":{"ha":979,"x_min":56,"x_max":926,"o":"m 918 431 q 926 326 926 396 q 888 131 926 201 q 769 29 850 60 q 554 -1 689 -1 l 56 -1 l 56 971 l 96 971 l 96 563 l 708 563 q 840 526 776 563 q 918 431 903 489 m 886 375 q 834 483 886 443 q 708 522 782 522 l 96 522 l 96 242 l 675 242 q 820 268 754 242 q 886 375 886 294 z "},"Э":{"ha":1169,"x_min":43,"x_max":1122,"o":"m 1085 507 q 1009 630 1075 574 q 839 718 943 686 q 613 750 735 750 l 538 750 q 280 707 397 750 q 107 594 163 664 l 43 607 q 145 810 71 722 q 324 945 219 897 q 543 993 429 993 l 608 993 q 863 926 744 993 q 1051 743 981 860 q 1122 481 1122 626 q 1057 227 1122 342 q 874 47 992 113 q 608 -19 757 -19 l 542 -19 q 338 31 443 -19 q 151 169 232 81 q 43 367 71 258 l 107 379 q 280 267 163 310 q 538 224 397 224 l 613 224 q 839 256 735 224 q 1009 344 943 288 q 1085 467 1075 400 l 267 467 l 267 507 l 1085 507 z "},"Ю":{"ha":1308,"x_min":56,"x_max":1281,"o":"m 775 993 q 1028 925 913 993 q 1213 740 1144 857 q 1281 486 1281 624 q 1213 233 1281 349 q 1028 49 1144 117 q 775 -19 913 -19 l 774 -19 q 526 45 640 -19 q 342 222 411 110 q 268 467 274 333 l 96 467 l 96 0 l 56 0 l 56 972 l 96 972 l 96 507 l 268 507 q 343 751 274 640 q 526 928 413 863 q 774 993 640 993 l 775 993 m 775 224 q 1009 259 901 224 q 1181 355 1117 294 q 1244 486 1244 415 q 1181 617 1244 557 q 1009 714 1117 678 q 775 750 901 750 q 540 715 649 750 q 368 618 432 679 q 304 486 304 557 q 368 355 304 415 q 540 259 432 294 q 775 224 649 224 z "},"Я":{"ha":1074,"x_min":7,"x_max":1018,"o":"m 1018 0 l 978 0 l 978 407 l 468 407 l 358 179 q 292 64 322 106 q 224 1 263 22 q 128 -21 185 -21 q 39 10 71 -21 q 7 81 7 42 q 37 152 7 122 q 108 182 67 182 q 181 152 151 182 q 210 81 210 122 q 199 35 210 57 q 266 97 236 53 q 325 203 296 142 l 424 407 l 325 407 q 176 455 239 407 q 108 596 114 503 l 108 660 q 126 836 108 776 q 224 933 144 896 q 481 971 304 971 l 1018 971 l 1018 0 m 978 728 l 358 728 q 203 694 263 728 q 150 574 143 660 l 151 565 q 211 481 163 514 q 325 447 260 447 l 978 447 l 978 728 z "},"а":{"ha":1194,"x_min":7,"x_max":1188,"o":"m 476 972 l 7 0 l 263 0 l 429 347 l 981 347 l 1143 0 l 1188 0 l 732 972 l 476 972 m 708 925 l 961 388 l 449 388 l 708 925 z "},"б":{"ha":975,"x_min":56,"x_max":926,"o":"m 708 564 q 815 540 765 564 q 896 474 865 517 q 926 375 926 431 l 926 311 q 905 138 926 201 q 803 38 883 75 q 554 0 722 0 l 56 0 l 56 972 l 864 972 l 864 729 l 96 729 l 96 564 l 708 564 m 886 388 q 859 461 886 431 q 791 508 832 492 q 708 524 750 524 l 96 524 l 96 243 l 676 243 q 824 269 761 243 q 886 388 886 294 z "},"в":{"ha":1018,"x_min":56,"x_max":969,"o":"m 969 338 q 951 146 969 211 q 854 40 933 81 q 599 0 775 0 l 56 0 l 56 972 l 554 972 q 808 937 731 972 q 906 835 886 901 q 925 626 925 768 q 901 557 925 596 q 833 494 878 518 q 929 438 889 478 q 969 338 969 397 m 708 506 q 825 535 769 506 q 881 619 881 564 q 817 703 881 678 q 675 729 754 729 l 96 729 l 96 506 l 708 506 m 719 243 q 871 274 815 243 q 926 354 926 304 q 896 418 926 393 q 824 454 865 443 q 753 465 783 465 l 96 465 l 96 243 l 719 243 z "},"г":{"ha":890,"x_min":56,"x_max":843,"o":"m 843 728 l 96 728 l 96 0 l 56 0 l 56 971 l 843 971 l 843 728 z "},"д":{"ha":1115,"x_min":14,"x_max":1101,"o":"m 1101 -208 l 1061 -208 l 1061 0 l 54 0 l 54 -208 l 14 -208 l 14 243 l 140 243 l 326 972 l 975 972 l 975 243 l 1101 243 l 1101 -208 m 935 243 l 935 729 l 306 729 l 181 243 l 935 243 z "},"е":{"ha":928,"x_min":56,"x_max":882,"o":"m 882 243 l 882 0 l 56 0 l 56 972 l 882 972 l 882 729 l 93 729 l 93 506 l 768 506 l 768 465 l 93 465 l 93 243 l 882 243 z "},"ж":{"ha":1632,"x_min":14,"x_max":1618,"o":"m 796 506 l 796 972 l 836 972 l 836 506 l 921 506 l 1261 972 l 1544 972 l 1175 465 l 1306 192 q 1417 40 1361 75 l 1426 35 q 1415 81 1415 57 q 1444 153 1415 124 q 1517 182 1474 182 q 1588 153 1558 182 q 1618 83 1618 124 q 1586 10 1618 40 q 1511 -21 1554 -21 q 1363 32 1415 -21 q 1269 174 1311 85 l 1129 465 l 836 465 l 836 0 l 796 0 l 796 465 l 710 465 l 371 0 l 88 0 l 458 506 l 325 781 q 213 933 271 894 l 206 938 q 217 890 217 915 q 187 819 217 849 q 115 789 157 789 q 44 819 74 789 q 14 889 14 849 q 42 960 14 928 q 135 992 71 992 q 269 938 218 992 q 361 799 321 885 l 501 506 l 796 506 z "},"з":{"ha":1065,"x_min":7,"x_max":1038,"o":"m 932 492 q 1013 444 988 472 q 1038 371 1038 417 q 990 199 1038 290 q 835 44 942 108 q 563 -19 728 -19 l 524 -19 q 297 28 406 -19 q 112 163 189 76 q 7 361 35 250 l 67 376 q 265 268 149 313 q 513 224 382 224 l 582 224 q 758 242 660 224 q 926 294 856 260 q 996 378 996 329 q 947 442 996 418 q 824 467 899 467 l 231 467 l 231 507 l 794 507 q 917 531 869 507 q 965 597 965 556 q 902 679 965 644 q 749 732 839 714 q 582 750 658 750 l 517 750 q 280 720 382 750 q 99 628 178 690 l 39 642 q 224 899 96 806 q 529 993 351 993 q 782 934 674 993 q 948 786 890 875 q 1006 613 1006 697 q 987 538 1006 565 q 932 492 968 510 z "},"и":{"ha":1129,"x_min":56,"x_max":1074,"o":"m 1074 972 l 1074 0 l 1032 0 l 1032 854 l 299 0 l 56 0 l 56 972 l 96 972 l 96 118 l 831 972 l 1074 972 z "},"й":{"ha":1129,"x_min":56,"x_max":1074,"o":"m 676 1179 q 644 1101 676 1133 q 565 1068 611 1068 q 485 1101 518 1068 q 453 1179 453 1133 q 485 1259 453 1226 q 565 1292 518 1292 q 644 1259 611 1292 q 676 1179 676 1226 m 1074 972 l 1074 0 l 1033 0 l 1033 854 l 299 0 l 56 0 l 56 972 l 97 972 l 97 118 l 831 972 l 1074 972 z "},"к":{"ha":1094,"x_min":56,"x_max":1081,"o":"m 768 192 q 827 92 794 138 q 889 35 860 46 q 878 81 878 57 q 908 153 878 124 q 979 182 938 182 q 1051 153 1021 182 q 1081 83 1081 124 q 1047 10 1081 40 q 965 -21 1013 -21 q 863 1 903 -21 q 794 63 822 24 q 732 175 767 103 l 610 428 l 299 0 l 56 0 l 56 972 l 96 972 l 96 111 l 724 972 l 1007 972 l 638 464 l 768 192 z "},"л":{"ha":1183,"x_min":0,"x_max":1128,"o":"m 292 150 q 108 -21 257 -21 q 33 9 65 -21 q 0 82 0 39 q 30 153 0 124 q 103 182 60 182 q 174 151 146 182 q 201 79 201 121 q 197 51 201 64 q 234 101 219 67 q 260 194 249 136 l 419 971 l 1128 971 l 1128 0 l 1088 0 l 1088 728 l 411 728 l 292 150 z "},"м":{"ha":1624,"x_min":0,"x_max":1568,"o":"m 785 842 l 271 0 l 0 0 l 596 972 l 825 972 l 825 135 l 1339 972 l 1568 972 l 1568 0 l 1528 0 l 1528 842 l 1014 0 l 785 0 l 785 842 z "},"н":{"ha":1042,"x_min":56,"x_max":986,"o":"m 986 0 l 946 0 l 946 365 l 96 365 l 96 0 l 56 0 l 56 972 l 96 972 l 96 607 l 946 607 l 946 972 l 986 972 l 986 0 z "},"о":{"ha":1149,"x_min":28,"x_max":1121,"o":"m 601 992 q 865 924 746 992 q 1052 740 983 856 q 1121 486 1121 624 q 1052 231 1121 347 q 865 47 983 115 q 601 -21 746 -21 l 549 -21 q 283 47 403 -21 q 96 231 164 115 q 28 486 28 347 q 96 740 28 625 q 283 924 164 856 q 549 992 403 992 l 601 992 m 613 222 q 849 258 740 222 q 1021 353 957 293 q 1085 486 1085 414 q 1021 617 1085 557 q 849 713 957 678 q 613 749 740 749 l 538 749 q 301 713 410 749 q 128 617 192 678 q 64 486 64 557 q 128 353 64 414 q 301 258 192 293 q 538 222 410 222 l 613 222 z "},"п":{"ha":1043,"x_min":56,"x_max":988,"o":"m 96 -1 l 56 -1 l 56 971 l 988 971 l 988 -1 l 946 -1 l 946 728 l 96 728 l 96 -1 z "},"р":{"ha":961,"x_min":56,"x_max":926,"o":"m 56 972 l 554 972 q 809 935 729 972 q 908 836 889 897 q 926 660 926 775 l 926 596 q 897 499 926 542 q 817 432 867 456 q 708 408 767 408 l 97 408 l 97 0 l 56 0 l 56 972 m 708 449 q 832 486 778 449 q 886 592 886 524 q 826 697 886 664 q 676 729 767 729 l 97 729 l 97 449 l 708 449 z "},"с":{"ha":1135,"x_min":28,"x_max":1107,"o":"m 28 485 q 95 740 28 624 q 282 924 163 856 q 549 992 401 992 l 601 992 q 831 942 725 992 q 1008 806 936 893 q 1107 606 1081 718 l 1043 593 q 869 706 986 663 q 613 749 753 749 l 538 749 q 301 713 410 749 q 128 617 193 678 q 64 485 64 557 q 128 353 64 414 q 301 258 193 293 q 538 222 410 222 l 613 222 q 869 265 753 222 q 1043 378 986 308 l 1107 365 q 1008 167 1079 254 q 832 29 938 79 q 601 -21 726 -21 l 549 -21 q 283 47 401 -21 q 96 231 164 115 q 28 485 28 347 z "},"т":{"ha":997,"x_min":14,"x_max":983,"o":"m 478 0 l 478 729 l 14 729 l 14 972 l 983 972 l 983 729 l 518 729 l 518 0 l 478 0 z "},"у":{"ha":1031,"x_min":7,"x_max":1024,"o":"m 7 971 l 56 971 l 411 411 l 754 972 l 1024 972 l 431 0 l 158 0 l 386 372 l 7 971 z "},"ф":{"ha":1149,"x_min":28,"x_max":1121,"o":"m 615 992 q 869 924 753 992 q 1053 740 985 856 q 1121 486 1121 624 q 1053 232 1121 349 q 869 47 985 115 q 615 -21 753 -21 l 594 -21 l 594 -183 l 554 -183 l 554 -21 l 533 -21 q 280 47 396 -21 q 96 232 164 115 q 28 486 28 349 q 96 740 28 624 q 280 924 164 856 q 533 992 396 992 l 554 992 l 554 1154 l 594 1154 l 594 992 l 615 992 m 64 483 q 126 352 64 413 q 299 257 188 292 q 554 222 411 222 l 554 749 q 303 713 415 749 q 128 617 192 678 q 64 483 64 557 m 594 222 q 840 258 728 222 q 1019 354 953 293 q 1085 488 1085 415 q 1021 618 1085 558 q 844 713 957 678 q 594 749 732 749 l 594 222 z "},"х":{"ha":1006,"x_min":7,"x_max":999,"o":"m 439 592 l 715 972 l 999 972 l 593 414 l 954 0 l 899 0 l 568 381 l 290 0 l 7 0 l 414 557 l 53 972 l 107 972 l 439 592 z "},"ц":{"ha":996,"x_min":56,"x_max":1065,"o":"m 863 39 q 965 12 918 39 q 1038 -62 1011 -15 q 1065 -164 1065 -110 q 1037 -266 1065 -219 q 961 -340 1008 -312 q 858 -368 914 -368 l 817 -368 q 727 -340 763 -368 q 692 -267 692 -312 q 721 -195 692 -225 q 793 -165 750 -165 q 865 -195 835 -165 q 894 -267 894 -225 q 874 -328 894 -297 q 981 -275 938 -322 q 1025 -164 1025 -228 q 977 -48 1025 -96 q 861 0 929 0 l 56 0 l 56 971 l 96 971 l 96 242 l 822 242 l 822 971 l 863 971 l 863 39 z "},"ч":{"ha":954,"x_min":35,"x_max":925,"o":"m 925 0 l 885 0 l 885 326 l 407 326 q 156 361 233 326 q 56 466 78 396 q 35 685 35 536 l 35 972 l 75 972 l 75 813 q 86 664 75 711 q 141 593 97 617 q 285 569 185 569 l 885 569 l 885 972 l 925 972 l 925 0 z "},"ш":{"ha":1263,"x_min":56,"x_max":1207,"o":"m 96 243 l 611 243 l 611 972 l 651 972 l 651 243 l 1167 243 l 1167 972 l 1207 972 l 1207 0 l 56 0 l 56 972 l 96 972 l 96 243 z "},"щ":{"ha":1264,"x_min":56,"x_max":1333,"o":"m 1132 40 q 1233 13 1186 40 q 1306 -62 1279 -15 q 1333 -164 1333 -108 q 1304 -266 1333 -219 q 1226 -340 1275 -312 q 1122 -368 1178 -368 l 1086 -368 q 993 -336 1026 -368 q 960 -262 960 -304 q 990 -194 960 -222 q 1061 -165 1019 -165 q 1133 -194 1103 -165 q 1163 -267 1163 -224 q 1143 -326 1163 -300 q 1249 -274 1206 -321 q 1293 -164 1293 -228 q 1245 -48 1293 -96 q 1129 0 1197 0 l 56 0 l 56 972 l 96 972 l 96 243 l 574 243 l 574 972 l 614 972 l 614 243 l 1092 243 l 1092 972 l 1132 972 l 1132 40 z "},"ъ":{"ha":1314,"x_min":17,"x_max":1263,"o":"m 1261 311 q 1241 138 1263 201 q 1139 38 1219 75 q 889 0 1058 0 l 390 0 l 390 776 q 344 905 390 858 q 228 951 297 951 q 117 908 164 951 q 64 800 69 864 q 126 821 90 821 q 198 792 169 821 q 226 719 226 764 q 199 650 226 678 q 126 622 171 622 q 44 666 72 622 q 17 776 17 710 q 46 882 17 832 q 124 962 75 932 q 228 992 172 992 q 329 964 282 992 q 404 889 376 936 q 432 788 432 842 l 432 564 l 1043 564 q 1149 540 1099 564 q 1230 474 1199 517 q 1261 375 1261 431 l 1261 311 m 1011 243 q 1160 273 1100 243 q 1221 381 1221 303 q 1194 459 1221 426 q 1126 508 1167 492 q 1043 524 1085 524 l 432 524 l 432 243 l 1011 243 z "},"ы":{"ha":1185,"x_min":56,"x_max":1129,"o":"m 919 428 q 841 526 904 489 q 710 564 778 564 l 97 564 l 97 972 l 56 972 l 56 0 l 554 0 q 769 31 689 0 q 888 132 850 61 q 926 326 926 203 q 919 428 926 396 m 1129 971 l 1089 971 l 1089 -1 l 1129 -1 l 1129 971 m 888 376 q 822 269 888 296 q 676 243 756 243 l 97 243 l 97 524 l 710 524 q 835 484 783 524 q 888 376 888 444 z "},"ь":{"ha":979,"x_min":56,"x_max":926,"o":"m 918 431 q 926 326 926 396 q 888 131 926 201 q 769 29 850 60 q 554 -1 689 -1 l 56 -1 l 56 971 l 96 971 l 96 563 l 708 563 q 840 526 776 563 q 918 431 903 489 m 886 375 q 834 483 886 443 q 708 522 782 522 l 96 522 l 96 242 l 675 242 q 820 268 754 242 q 886 375 886 294 z "},"э":{"ha":1169,"x_min":43,"x_max":1122,"o":"m 1085 507 q 1009 630 1075 574 q 839 718 943 686 q 613 750 735 750 l 538 750 q 280 707 397 750 q 107 594 163 664 l 43 607 q 145 810 71 722 q 324 945 219 897 q 543 993 429 993 l 608 993 q 863 926 744 993 q 1051 743 981 860 q 1122 481 1122 626 q 1057 227 1122 342 q 874 47 992 113 q 608 -19 757 -19 l 542 -19 q 338 31 443 -19 q 151 169 232 81 q 43 367 71 258 l 107 379 q 280 267 163 310 q 538 224 397 224 l 613 224 q 839 256 735 224 q 1009 344 943 288 q 1085 467 1075 400 l 267 467 l 267 507 l 1085 507 z "},"ю":{"ha":1308,"x_min":56,"x_max":1281,"o":"m 775 993 q 1028 925 913 993 q 1213 740 1144 857 q 1281 486 1281 624 q 1213 233 1281 349 q 1028 49 1144 117 q 775 -19 913 -19 l 774 -19 q 526 45 640 -19 q 342 222 411 110 q 268 467 274 333 l 96 467 l 96 0 l 56 0 l 56 972 l 96 972 l 96 507 l 268 507 q 343 751 274 640 q 526 928 413 863 q 774 993 640 993 l 775 993 m 775 224 q 1009 259 901 224 q 1181 355 1117 294 q 1244 486 1244 415 q 1181 617 1244 557 q 1009 714 1117 678 q 775 750 901 750 q 540 715 649 750 q 368 618 432 679 q 304 486 304 557 q 368 355 304 415 q 540 259 432 294 q 775 224 649 224 z "},"я":{"ha":1074,"x_min":7,"x_max":1018,"o":"m 1018 0 l 978 0 l 978 407 l 468 407 l 358 179 q 292 64 322 106 q 224 1 263 22 q 128 -21 185 -21 q 39 10 71 -21 q 7 81 7 42 q 37 152 7 122 q 108 182 67 182 q 181 152 151 182 q 210 81 210 122 q 199 35 210 57 q 266 97 236 53 q 325 203 296 142 l 424 407 l 325 407 q 176 455 239 407 q 108 596 114 503 l 108 660 q 126 836 108 776 q 224 933 144 896 q 481 971 304 971 l 1018 971 l 1018 0 m 978 728 l 358 728 q 203 694 263 728 q 150 574 143 660 l 151 565 q 211 481 163 514 q 325 447 260 447 l 978 447 l 978 728 z "},"ё":{"ha":913,"x_min":56,"x_max":882,"o":"m 186 1179 q 219 1259 186 1226 q 299 1292 251 1292 q 377 1259 344 1292 q 410 1179 410 1226 q 377 1101 410 1133 q 299 1068 344 1068 q 219 1101 251 1068 q 186 1179 186 1133 m 504 1179 q 537 1259 504 1226 q 615 1292 569 1292 q 694 1259 661 1292 q 726 1179 726 1226 q 694 1101 726 1133 q 615 1068 661 1068 q 537 1101 569 1068 q 504 1179 504 1133 m 882 243 l 882 0 l 56 0 l 56 972 l 882 972 l 882 729 l 93 729 l 93 506 l 768 506 l 768 465 l 93 465 l 93 243 l 882 243 z "},"є":{"ha":1154,"x_min":28,"x_max":1107,"o":"m 65 507 q 140 630 75 574 q 310 718 206 686 q 536 750 415 750 l 611 750 q 869 707 753 750 q 1043 594 986 664 l 1107 607 q 1005 810 1081 722 q 825 945 929 897 q 607 993 721 993 l 542 993 q 287 927 406 993 q 98 745 168 861 q 28 488 28 629 q 97 231 28 347 q 283 48 165 115 q 542 -19 400 -19 l 607 -19 q 831 30 726 -19 q 1007 167 935 79 q 1107 367 1079 254 l 1043 379 q 869 267 986 310 q 611 224 753 224 l 536 224 q 310 256 415 224 q 140 344 206 288 q 65 467 75 400 l 883 467 l 883 507 l 65 507 z "},"і":{"ha":222,"x_min":0,"x_max":222,"o":"m 222 1179 q 190 1259 222 1226 q 111 1292 157 1292 q 33 1259 65 1292 q 0 1179 0 1226 q 33 1101 0 1133 q 111 1068 65 1068 q 190 1101 157 1068 q 222 1179 222 1133 m 90 972 l 90 0 l 131 0 l 131 972 l 90 972 z "},"ї":{"ha":221,"x_min":-160,"x_max":381,"o":"m 63 1179 q 30 1259 63 1226 q -49 1292 -3 1292 q -127 1259 -94 1292 q -160 1179 -160 1226 q -127 1101 -160 1133 q -49 1068 -94 1068 q 30 1101 -3 1068 q 63 1179 63 1133 m 381 1179 q 348 1259 381 1226 q 268 1292 315 1292 q 190 1259 222 1292 q 157 1179 157 1226 q 190 1101 157 1133 q 268 1068 222 1068 q 348 1101 315 1068 q 381 1179 381 1133 m 90 972 l 90 0 l 131 0 l 131 972 l 90 972 z "},"Ґ":{"ha":900,"x_min":56,"x_max":843,"o":"m 803 1181 l 843 1181 l 843 728 l 96 728 l 96 0 l 56 0 l 56 971 l 803 971 l 803 1181 z "},"ґ":{"ha":900,"x_min":56,"x_max":843,"o":"m 803 1181 l 843 1181 l 843 728 l 96 728 l 96 0 l 56 0 l 56 971 l 803 971 l 803 1181 z "},"–":{"ha":856,"x_min":72,"x_max":751,"o":"m 72 506 l 751 506 l 751 465 l 72 465 l 72 506 z "},"—":{"ha":1128,"x_min":74,"x_max":1046,"o":"m 74 506 l 1046 506 l 1046 465 l 74 465 l 74 506 z "},"“":{"ha":568,"x_min":29,"x_max":519,"o":"m 75 801 q 126 908 79 864 q 236 951 172 951 l 236 992 q 83 924 138 992 q 29 742 29 857 q 62 656 29 694 q 135 618 94 618 q 207 648 178 618 q 236 719 236 678 q 207 792 236 763 q 135 821 178 821 q 75 801 101 821 m 357 801 q 409 908 363 864 q 519 951 456 951 l 519 992 q 367 924 421 992 q 313 742 313 857 q 345 656 313 694 q 418 618 378 618 q 490 648 460 618 q 519 719 519 678 q 490 792 519 763 q 418 821 460 821 q 357 801 385 821 z "},"”":{"ha":586,"x_min":54,"x_max":544,"o":"m 217 810 q 165 702 211 746 q 54 658 118 658 l 54 618 q 208 685 154 618 q 261 868 261 753 q 228 953 261 915 q 156 992 196 992 q 84 963 114 992 q 54 890 54 933 q 84 819 54 849 q 156 789 114 789 q 217 810 189 789 m 500 810 q 448 702 494 746 q 338 658 401 658 l 338 618 q 490 685 436 618 q 544 868 544 753 q 512 953 544 915 q 439 992 479 992 q 367 963 397 992 q 338 890 338 933 q 367 819 338 849 q 439 789 397 789 q 500 810 469 789 z "},"‰":{"ha":1774,"x_min":68,"x_max":1701,"o":"m 179 -7 l 1000 1004 l 1031 979 l 210 -33 l 179 -7 m 329 992 q 442 962 390 992 q 524 881 493 932 q 554 768 554 829 q 524 655 554 707 q 442 573 493 603 q 329 543 390 543 l 293 543 q 181 573 232 543 q 99 655 129 603 q 68 768 68 707 q 99 881 68 829 q 181 962 129 932 q 293 992 232 992 l 329 992 m 328 669 q 468 695 417 669 q 519 768 519 721 q 467 841 519 815 q 328 867 415 867 l 294 867 q 155 841 207 867 q 103 768 103 815 q 154 695 103 721 q 294 669 206 669 l 328 669 m 881 -21 q 767 10 819 -21 q 685 92 715 40 q 656 204 656 143 q 685 317 656 265 q 767 399 715 368 q 881 429 819 429 l 917 429 q 1029 399 978 429 q 1110 317 1081 368 q 1140 204 1140 265 q 1110 92 1140 143 q 1029 10 1081 40 q 917 -21 978 -21 l 881 -21 m 1442 -21 q 1328 9 1381 -21 q 1247 90 1276 39 q 1217 203 1217 142 q 1247 315 1217 264 q 1328 397 1276 367 q 1442 428 1381 428 l 1478 428 q 1590 397 1539 428 q 1672 315 1642 367 q 1701 203 1701 264 q 1672 90 1701 142 q 1590 9 1642 39 q 1478 -21 1539 -21 l 1442 -21 m 882 303 q 742 277 793 303 q 690 204 690 251 q 742 131 690 157 q 882 106 794 106 l 915 106 q 1055 131 1003 106 q 1107 204 1107 157 q 1055 277 1107 251 q 915 303 1003 303 l 882 303 m 1443 301 q 1303 276 1354 301 q 1251 203 1251 250 q 1303 130 1251 156 q 1443 104 1356 104 l 1476 104 q 1616 130 1564 104 q 1668 203 1668 156 q 1616 276 1668 250 q 1476 301 1564 301 l 1443 301 z "},"‹":{"ha":543,"x_min":56,"x_max":439,"o":"m 114 342 l 439 653 l 411 682 l 56 342 l 411 0 l 439 29 l 114 342 z "},"›":{"ha":543,"x_min":72,"x_max":456,"o":"m 399 342 l 72 653 l 100 682 l 456 342 l 100 0 l 72 29 l 399 342 z "},"№":{"ha":1640,"x_min":56,"x_max":1613,"o":"m 1389 992 q 1501 962 1450 992 q 1583 881 1553 932 q 1613 768 1613 829 q 1583 655 1613 707 q 1501 573 1553 603 q 1389 543 1450 543 l 1353 543 q 1240 573 1292 543 q 1158 655 1188 603 q 1128 768 1128 707 q 1158 881 1128 829 q 1240 962 1188 932 q 1353 992 1292 992 l 1389 992 m 96 0 l 56 0 l 56 972 l 299 972 l 1032 118 l 1032 972 l 1072 972 l 1072 0 l 829 0 l 96 854 l 96 0 m 1388 669 q 1527 695 1475 669 q 1579 768 1579 721 q 1527 841 1579 815 q 1388 867 1475 867 l 1354 867 q 1215 841 1267 867 q 1163 768 1163 815 q 1214 695 1163 721 q 1354 669 1265 669 l 1388 669 m 1188 481 l 1554 481 l 1554 440 l 1188 440 l 1188 481 z "}}}
